<svg id="Ferestre" xmlns="http://www.w3.org/2000/svg" xmlns:xlink="http://www.w3.org/1999/xlink" width="1920" height="1080" viewBox="0 0 1920 1080">
  <metadata><?xpacket begin="﻿" id="W5M0MpCehiHzreSzNTczkc9d"?>
<x:xmpmeta xmlns:x="adobe:ns:meta/" x:xmptk="Adobe XMP Core 5.6-c142 79.160924, 2017/07/13-01:06:39        ">
   <rdf:RDF xmlns:rdf="http://www.w3.org/1999/02/22-rdf-syntax-ns#">
      <rdf:Description rdf:about=""/>
   </rdf:RDF>
</x:xmpmeta>
                                                                                                    
                                                                                                    
                                                                                                    
                                                                                                    
                                                                                                    
                                                                                                    
                                                                                                    
                                                                                                    
                                                                                                    
                                                                                                    
                                                                                                    
                                                                                                    
                                                                                                    
                                                                                                    
                                                                                                    
                                                                                                    
                                                                                                    
                                                                                                    
                                                                                                    
                                                                                                    
                           
<?xpacket end="w"?></metadata>
<defs>
    <style>
      .cls-1 {
        fill: #a5d3d6;
      }

      .cls-1, .cls-12, .cls-15, .cls-17, .cls-18, .cls-19, .cls-20, .cls-22, .cls-23, .cls-3, .cls-7, .cls-8 {
        fill-rule: evenodd;
      }

      .cls-2, .cls-3 {
        fill: #ffe898;
      }

      .cls-12, .cls-4 {
        fill: #fffed8;
      }

      .cls-15, .cls-5 {
        fill: #aed7d9;
      }

      .cls-6 {
        fill: #4d2f18;
      }

      .cls-7 {
        fill: #238f15;
      }

      .cls-8 {
        fill: #3dbe2b;
      }

      .cls-9 {
        opacity: 0.3;
      }

      .cls-10 {
        fill: #847a5f;
      }

      .cls-11, .cls-23 {
        fill: #fff;
      }

      .cls-13 {
        fill: #ebb869;
      }

      .cls-14 {
        fill: #cb8c29;
      }

      .cls-16 {
        fill: #169eb3;
      }

      .cls-17 {
        fill: #a51414;
      }

      .cls-18 {
        fill: #8c0d0d;
        opacity: 0.52;
      }

      .cls-19, .cls-20 {
        fill: #fdc;
      }

      .cls-20 {
        opacity: 0.42;
        filter: url(#filter);
      }

      .cls-21 {
        fill: #ebebeb;
      }

      .cls-22 {
        fill: #8b1010;
        filter: url(#filter-2);
      }
    </style>
    <filter id="filter" x="1843.63" y="710.156" width="9.18" height="13.032" filterUnits="userSpaceOnUse">
      <feFlood result="flood" flood-color="#fec4a6"/>
      <feComposite result="composite" operator="in" in2="SourceGraphic"/>
      <feBlend result="blend" in2="SourceGraphic"/>
    </filter>
    <filter id="filter-2" x="1841.16" y="703.281" width="5.68" height="6.125" filterUnits="userSpaceOnUse">
      <feFlood result="flood" flood-color="#a51414"/>
      <feComposite result="composite" operator="in" in2="SourceGraphic"/>
      <feBlend result="blend" in2="SourceGraphic"/>
    </filter>
  </defs>
  <path class="cls-1" d="M1787.14,138H1918V863.5H1787.14V138ZM153.84,161.992H372.611v178.5H572.4q0.5-25.428,1-50.862l250.739-73.894q-1,413.093-2,826.268h-475.5v-34.55H153.84V161.992Zm951.01,860.818H853.11q0.5-370.4,1-740.861l250.741-73.894V1022.81ZM0,281.949H121.873v725.5H0v-725.5ZM1685.24,371.2v62.378h39.96V993.057H1430.51V371.2h34.96c21.77-88.11,158.93-87.9,180.81,0h38.96Zm-542.43-31.668h254.73V1009.37H1142.81V339.529Z"/>
  <rect id="Rectangle_3_copy" data-name="Rectangle 3 copy" class="cls-2" x="1368" y="532" width="684" height="380"/>
  <path class="cls-3" d="M1923,910h-97V496.224q47.97-26.109,95.96-52.224Q1922.47,676.977,1923,910Z"/>
  <rect id="Rectangle_4_copy" data-name="Rectangle 4 copy" class="cls-4" x="1481" y="583" width="345" height="269"/>
  <rect class="cls-5" x="1486" y="590" width="61" height="80"/>
  <rect id="Rectangle_17_copy" data-name="Rectangle 17 copy" class="cls-5" x="1554" y="590" width="61" height="80"/>
  <rect id="Rectangle_17_copy_2" data-name="Rectangle 17 copy 2" class="cls-5" x="1622" y="590" width="61" height="80"/>
  <rect id="Rectangle_17_copy_2-2" data-name="Rectangle 17 copy 2" class="cls-5" x="1690" y="590" width="61" height="80"/>
  <rect id="Rectangle_17_copy_3" data-name="Rectangle 17 copy 3" class="cls-5" x="1758" y="590" width="61" height="80"/>
  <rect id="Rectangle_17_copy_4" data-name="Rectangle 17 copy 4" class="cls-5" x="1486" y="677" width="61" height="80"/>
  <rect id="Rectangle_17_copy_4-2" data-name="Rectangle 17 copy 4" class="cls-5" x="1554" y="677" width="61" height="80"/>
  <rect id="Rectangle_17_copy_4-3" data-name="Rectangle 17 copy 4" class="cls-5" x="1622" y="677" width="61" height="80"/>
  <rect id="Rectangle_17_copy_4-4" data-name="Rectangle 17 copy 4" class="cls-5" x="1690" y="677" width="61" height="80"/>
  <rect id="Rectangle_17_copy_4-5" data-name="Rectangle 17 copy 4" class="cls-5" x="1758" y="677" width="61" height="80"/>
  <rect id="Rectangle_17_copy_5" data-name="Rectangle 17 copy 5" class="cls-5" x="1486" y="764" width="61" height="80"/>
  <rect id="Rectangle_17_copy_5-2" data-name="Rectangle 17 copy 5" class="cls-5" x="1554" y="764" width="61" height="80"/>
  <rect id="Rectangle_17_copy_5-3" data-name="Rectangle 17 copy 5" class="cls-5" x="1622" y="764" width="61" height="80"/>
  <rect id="Rectangle_17_copy_5-4" data-name="Rectangle 17 copy 5" class="cls-5" x="1690" y="764" width="61" height="80"/>
  <rect id="Rectangle_17_copy_5-5" data-name="Rectangle 17 copy 5" class="cls-5" x="1758" y="764" width="61" height="80"/>
  <rect class="cls-6" x="1619" y="873" width="11" height="39"/>
  <rect id="Rectangle_18_copy" data-name="Rectangle 18 copy" class="cls-6" x="1662" y="873" width="8" height="39"/>
  <path id="Polygon_5" data-name="Polygon 5" class="cls-7" d="M1624.5,693l54.51,183.992H1570Z"/>
  <path id="Polygon_5_copy" data-name="Polygon 5 copy" class="cls-8" d="M1665.5,739L1708,893h-85Z"/>
  <rect class="cls-9" x="1486" y="532" width="23" height="380"/>
  <rect class="cls-10" x="-19" y="912" width="1955" height="171"/>
  <rect id="Rectangle_2_copy" data-name="Rectangle 2 copy" class="cls-2" x="1368" y="468" width="118" height="444"/>
  <rect id="Rectangle_5_copy" data-name="Rectangle 5 copy" class="cls-11" x="1368" y="539" width="118" height="25"/>
  <path class="cls-12" d="M1843,566V506.422l78-41.794V566h-78Z"/>
  <rect class="cls-4" x="1843" y="583" width="77" height="317"/>
  <rect class="cls-13" x="1790" y="912" width="131" height="12"/>
  <rect class="cls-14" x="1790" y="912" width="131" height="5"/>
  <rect id="Rectangle_20_copy" data-name="Rectangle 20 copy" class="cls-13" x="1810" y="900" width="131" height="12"/>
  <rect id="Rectangle_21_copy" data-name="Rectangle 21 copy" class="cls-14" x="1810" y="900" width="131" height="5"/>
  <rect id="Rectangle_20_copy_2" data-name="Rectangle 20 copy 2" class="cls-13" x="1831" y="888" width="131" height="12"/>
  <path class="cls-15" d="M1855,844h62V832h-9V806h9V764h-62v80Z"/>
  <rect class="cls-5" x="1850" y="590" width="76" height="31"/>
  <rect id="Rectangle_22_copy" data-name="Rectangle 22 copy" class="cls-5" x="1850" y="628" width="76" height="31"/>
  <rect id="Rectangle_22_copy_2" data-name="Rectangle 22 copy 2" class="cls-5" x="1850" y="666" width="76" height="31"/>
  <rect id="Rectangle_21_copy_2" data-name="Rectangle 21 copy 2" class="cls-14" x="1831" y="888" width="131" height="5"/>
  <rect class="cls-16" x="1816" y="692" width="109" height="67"/>
  <rect id="Rectangle_23_copy" data-name="Rectangle 23 copy" class="cls-16" x="1416" y="582" width="22" height="67"/>
  <rect id="Rectangle_23_copy_2" data-name="Rectangle 23 copy 2" class="cls-16" x="1394" y="605" width="67" height="22"/>
  <path class="cls-17" d="M1826,730.693l4-11.842h9.5l4.25,6.178,4-6.178h9.5l3.75,11.584L1843.5,750Z"/>
  <path class="cls-18" d="M1843.38,750l13.9-30.894L1861,730.34Z"/>
  <path id="Polygon_1" data-name="Polygon 1" class="cls-19" d="M1853.01,709.913l-9.35,13.278-9.1-13.223Z"/>
  <path class="cls-20" d="M1843.62,723.191l4.97-13.021h4.22Z"/>
  <rect class="cls-21" x="1835" y="702" width="18" height="9"/>
  <path class="cls-22" d="M1841.14,705.237h1.83v-1.96h2.05v1.96h1.83v2.206h-1.83V709.4h-2.05v-1.961h-1.83v-2.206Z"/>
  <path id="Polygon_6" data-name="Polygon 6" class="cls-15" d="M1853.93,516.676l62.06,39.337h-62Z"/>
  <path id="Polygon_6_copy" data-name="Polygon 6 copy" class="cls-15" d="M1919.62,548.038l-60.4-39.078,61.64-31.282Z"/>
  <path class="cls-23" d="M1870,747h9.12V729.872h9.44V747H1898V703h-9.44v17.423h-9.12V703H1870v44Z"/>
  <path class="cls-23" d="M1905,703h28v44h-28V703Zm9.33,8.8v26.4h9.34V711.8h-9.34Z"/>
</svg>
