<svg id="radu" xmlns="http://www.w3.org/2000/svg" width="277" height="281" viewBox="0 0 277 281">
  <metadata><?xpacket begin="﻿" id="W5M0MpCehiHzreSzNTczkc9d"?>
<x:xmpmeta xmlns:x="adobe:ns:meta/" x:xmptk="Adobe XMP Core 5.6-c142 79.160924, 2017/07/13-01:06:39        ">
   <rdf:RDF xmlns:rdf="http://www.w3.org/1999/02/22-rdf-syntax-ns#">
      <rdf:Description rdf:about=""/>
   </rdf:RDF>
</x:xmpmeta>
                                                                                                    
                                                                                                    
                                                                                                    
                                                                                                    
                                                                                                    
                                                                                                    
                                                                                                    
                                                                                                    
                                                                                                    
                                                                                                    
                                                                                                    
                                                                                                    
                                                                                                    
                                                                                                    
                                                                                                    
                                                                                                    
                                                                                                    
                                                                                                    
                                                                                                    
                                                                                                    
                           
<?xpacket end="w"?></metadata>
<defs>
    <style>
      .cls-1, .cls-16 {
        fill: #f09e10;
      }

      .cls-1, .cls-10, .cls-14, .cls-2, .cls-3, .cls-4, .cls-5, .cls-6, .cls-9 {
        fill-rule: evenodd;
      }

      .cls-2, .cls-5, .cls-8 {
        fill: #cb8710;
      }

      .cls-10, .cls-2 {
        opacity: 0.7;
      }

      .cls-3 {
        fill: #fdc;
      }

      .cls-4 {
        fill: #fcc9af;
        opacity: 0.6;
      }

      .cls-13, .cls-7, .cls-8 {
        font-size: 12px;
        font-family: Pixel;
      }

      .cls-7 {
        fill: #fff;
      }

      .cls-11, .cls-9 {
        fill: #6a10f0;
      }

      .cls-10, .cls-12, .cls-13, .cls-14 {
        fill: #580ec6;
      }

      .cls-15 {
        fill: #5d0fd3;
      }
    </style>
  </defs>
  <path class="cls-1" d="M20,163.62L36.318,118H75.074l17.338,23.8L108.729,118h38.756l15.3,44.628L91.392,238Z"/>
  <path class="cls-2" d="M90.892,238l55.915-119,14.978,43.273Z"/>
  <path id="Polygon_1" data-name="Polygon 1" class="cls-3" d="M128.953,81.168L91.409,131.991l-37.8-50.8Z"/>
  <path class="cls-4" d="M91.891,132L111.86,82h16.975Z"/>
  <path class="cls-1" d="M52.95,49h76.883V82H52.95V49Z"/>
  <path id="Rectangle_1_copy" data-name="Rectangle 1 copy" class="cls-5" d="M52.95,72h76.883V82H52.95V72Z"/>
  <path class="cls-6" d="M48.2,195L20,163H164.01L133.8,195H48.2Z"/>
  <text id="_radu" data-name="#radu" class="cls-7" transform="translate(47.518 187.701) scale(2.068 2.071)">#radu</text>
  <text id="_" data-name="&lt;/&gt;" class="cls-8" transform="translate(77.328 66.553) scale(1.412 1.414)">&lt;/&gt;</text>
  <path class="cls-9" d="M124,163.62L140.343,118h38.814l17.364,23.8L212.864,118h38.815L267,162.628,195.5,238Z"/>
  <path class="cls-10" d="M195,238l56-119,15,43.273Z"/>
  <path id="Polygon_1-2" data-name="Polygon 1" class="cls-3" d="M233.118,81.168l-37.6,50.823-37.853-50.8Z"/>
  <path class="cls-4" d="M196,132l20-50h17Z"/>
  <rect class="cls-11" x="157" y="49" width="77" height="33"/>
  <rect id="Rectangle_1_copy-2" data-name="Rectangle 1 copy" class="cls-12" x="157" y="72" width="77" height="10"/>
  <path class="cls-6" d="M152.6,195.023L122.2,162.88,268.233,163,239.4,195.1Z"/>
  <text id="_dan" data-name="#dan" class="cls-7" transform="translate(160.573 187.701) scale(2.071)">#dan</text>
  <text id="_2" data-name="&lt;/&gt;" class="cls-13" transform="translate(181.416 66.553) scale(1.414)">&lt;/&gt;</text>
  <path id="Polygon_2" data-name="Polygon 2" class="cls-14" d="M25.911,234.863l8.835,14.921L23.286,262.8,7.368,255.918l1.623-17.263Z"/>
  <rect class="cls-15" x="33" y="249" width="108" height="1"/>
  <rect class="cls-15" x="140" y="218" width="1" height="32"/>
  <path id="Polygon_2-2" data-name="Polygon 2" class="cls-1" d="M251.412,44.054l-8.86-14.993,11.493-13.076L270.007,22.9,268.38,40.245Z"/>
  <rect class="cls-16" x="143" y="29" width="102" height="1"/>
  <rect class="cls-16" x="142" y="29" width="1" height="51"/>
</svg>
