<svg xmlns="http://www.w3.org/2000/svg" width="3072" height="1443" viewBox="0 0 3072 1443">
  <metadata><?xpacket begin="﻿" id="W5M0MpCehiHzreSzNTczkc9d"?>
<x:xmpmeta xmlns:x="adobe:ns:meta/" x:xmptk="Adobe XMP Core 5.6-c142 79.160924, 2017/07/13-01:06:39        ">
   <rdf:RDF xmlns:rdf="http://www.w3.org/1999/02/22-rdf-syntax-ns#">
      <rdf:Description rdf:about=""/>
   </rdf:RDF>
</x:xmpmeta>
                                                                                                    
                                                                                                    
                                                                                                    
                                                                                                    
                                                                                                    
                                                                                                    
                                                                                                    
                                                                                                    
                                                                                                    
                                                                                                    
                                                                                                    
                                                                                                    
                                                                                                    
                                                                                                    
                                                                                                    
                                                                                                    
                                                                                                    
                                                                                                    
                                                                                                    
                                                                                                    
                           
<?xpacket end="w"?></metadata>
<defs>
    <style>
      .cls-1, .cls-3 {
        fill: #169eb3;
      }

      .cls-2 {
        fill: #fff;
      }

      .cls-3, .cls-4 {
        fill-rule: evenodd;
      }

      .cls-4 {
        fill: #17a2b8;
      }
    </style>
  </defs>
  <rect class="cls-1" x="2570" y="387" width="112" height="209"/>
  <rect id="Rectangle_2_copy" data-name="Rectangle 2 copy" class="cls-1" x="2889" y="385" width="112" height="209"/>
  <rect class="cls-1" x="2696" y="310" width="181" height="283"/>
  <rect class="cls-2" x="2751" y="507" width="77" height="89"/>
  <g>
    <rect class="cls-2" x="2594" y="422" width="29" height="28"/>
    <rect id="Rectangle_5_copy" data-name="Rectangle 5 copy" class="cls-2" x="2632" y="422" width="29" height="28"/>
    <rect id="Rectangle_5_copy_2" data-name="Rectangle 5 copy 2" class="cls-2" x="2594" y="463" width="29" height="28"/>
    <rect id="Rectangle_5_copy_2-2" data-name="Rectangle 5 copy 2" class="cls-2" x="2632" y="463" width="29" height="28"/>
    <rect id="Rectangle_5_copy_3" data-name="Rectangle 5 copy 3" class="cls-2" x="2594" y="505" width="29" height="28"/>
    <rect id="Rectangle_5_copy_3-2" data-name="Rectangle 5 copy 3" class="cls-2" x="2632" y="505" width="29" height="28"/>
  </g>
  <g id="Group_2_copy" data-name="Group 2 copy">
    <rect class="cls-2" x="2913" y="422" width="29" height="28"/>
    <rect id="Rectangle_5_copy-2" data-name="Rectangle 5 copy" class="cls-2" x="2951" y="422" width="29" height="28"/>
    <rect id="Rectangle_5_copy_2-3" data-name="Rectangle 5 copy 2" class="cls-2" x="2913" y="463" width="29" height="28"/>
    <rect id="Rectangle_5_copy_2-4" data-name="Rectangle 5 copy 2" class="cls-2" x="2951" y="463" width="29" height="28"/>
    <rect id="Rectangle_5_copy_3-3" data-name="Rectangle 5 copy 3" class="cls-2" x="2913" y="505" width="29" height="28"/>
    <rect id="Rectangle_5_copy_3-4" data-name="Rectangle 5 copy 3" class="cls-2" x="2951" y="505" width="29" height="28"/>
  </g>
  <g>
    <circle class="cls-2" cx="2786.5" cy="399.5" r="61.5"/>
    <rect class="cls-1" x="2491" y="504" width="6" height="89"/>
    <path id="Polygon_1" data-name="Polygon 1" class="cls-3" d="M2535.01,560.991l-82.02-.274L2494.24,490Z"/>
    <path id="Polygon_1_copy" data-name="Polygon 1 copy" class="cls-4" d="M2528,533.992l-68.01-.227L2494.2,475Z"/>
    <path id="Polygon_1_copy_2" data-name="Polygon 1 copy 2" class="cls-3" d="M2516,502l-44-.146L2494.13,464Z"/>
  </g>
  <rect class="cls-1" x="2778" y="359" width="17" height="80"/>
  <rect class="cls-1" x="2747" y="391" width="79" height="17"/>
  <path class="cls-4" d="M3076,1442H-8V393.607l18.07,11.025L142.586,476.8c144,67.243,346.043,128.377,566.2,100.229,98.128-12.546,185.162-30.688,265.031-61.14,158.3-60.353,351.33-164.99,592.3-137.313,139.81,16.057,253.27,28.484,362.42,69.158C2030.37,485.678,2112.1,537.912,2225.69,565c127.89,30.5,297.22,23.054,454.77,23.053l395.54-1V1442Z"/>
  <path id="Shape_1_copy" data-name="Shape 1 copy" class="cls-3" d="M4714,1909H-695V860.607l31.693,11.025L-430.889,943.8c252.557,67.243,606.923,128.373,993.059,100.233,172.106-12.55,324.754-30.69,464.84-61.144,277.63-60.353,616.19-164.99,1038.83-137.313,245.21,16.057,444.2,28.484,635.63,69.158,178.61,37.947,321.96,90.179,521.18,117.269,224.31,30.5,521.29,23.05,797.62,23.05q346.83-.495,693.73-1V1909Z"/>
</svg>
